<svg width="362" height="83" viewBox="0 0 362 83" fill="none" xmlns="http://www.w3.org/2000/svg">
<g clip-path="url(#clip0_955_6443)">
<path d="M245.197 34.2111H209.035C208.198 34.2111 207.912 34.4962 207.912 35.3325V43.2391C207.912 44.0373 208.255 44.3794 209.035 44.3794H218.875C219.295 44.3406 219.719 44.3954 220.116 44.5398C220.512 44.6842 220.872 44.9147 221.169 45.2147C221.466 45.5146 221.692 45.8766 221.832 46.2744C221.972 46.6723 222.021 47.0961 221.977 47.5155V80.5862C221.977 81.3655 222.32 81.7076 223.119 81.7076H231.037C231.874 81.7076 232.179 81.4225 232.179 80.5862V47.5155C232.144 47.0991 232.201 46.6803 232.345 46.2879C232.488 45.8955 232.715 45.5389 233.01 45.2426C233.305 44.9463 233.661 44.7174 234.053 44.5716C234.445 44.4259 234.864 44.3668 235.281 44.3985H245.197C246.034 44.3985 246.339 44.0944 246.339 43.2581V35.3705C246.339 34.4962 246.072 34.2491 245.197 34.2491" fill="white"/>
<path d="M252.885 81.7266H282.995C283.642 81.7266 283.87 81.4605 283.908 80.7953V72.6797C283.908 71.8244 283.661 71.5583 282.785 71.5583H253.133C252.276 71.5583 252.01 71.8244 252.01 72.6797V80.8143C252.01 80.9374 252.034 81.0592 252.083 81.1724C252.131 81.2857 252.202 81.388 252.291 81.4732C252.38 81.5584 252.485 81.6248 252.6 81.6684C252.715 81.7119 252.838 81.7317 252.961 81.7266" fill="white"/>
<path d="M306.291 32.9757C292.416 32.9757 289.523 41.7756 289.523 49.15V66.8257C289.523 74.2001 292.416 83 306.291 83C319.462 83 322.64 75.0934 322.983 68.4603C323.002 68.3428 322.997 68.2228 322.969 68.1072C322.94 67.9916 322.889 67.8828 322.818 67.7872C322.747 67.6916 322.658 67.6111 322.556 67.5504C322.453 67.4898 322.339 67.4502 322.221 67.4339L314.209 65.6664C314.051 65.6154 313.885 65.5992 313.72 65.6189C313.556 65.6386 313.398 65.6937 313.257 65.7804C313.084 65.9118 312.941 66.0776 312.836 66.2674C312.731 66.4573 312.667 66.6668 312.648 66.8828C312.248 69.9618 311.202 72.8317 306.291 72.8317C299.706 72.8317 299.706 67.643 299.706 63.0815V52.8942C299.706 48.3327 299.706 43.144 306.291 43.144C307.109 43.0394 307.94 43.1129 308.727 43.3596C309.514 43.6062 310.237 44.0201 310.849 44.5727C311.46 45.1254 311.944 45.8037 312.268 46.5611C312.592 47.3184 312.747 48.1368 312.724 48.9599C312.744 49.1831 312.81 49.3998 312.918 49.5961C313.026 49.7924 313.174 49.9641 313.352 50.1003C313.498 50.2074 313.666 50.2801 313.844 50.3131C314.022 50.346 314.205 50.3382 314.38 50.2904L322.202 48.5418C322.432 48.5178 322.642 48.4046 322.788 48.2267C322.934 48.0488 323.004 47.8206 322.983 47.5915C322.64 40.9203 319.462 32.9757 306.291 32.9757Z" fill="white"/>
<path d="M352.94 81.7266H360.858C361.695 81.7266 362 81.4415 362 80.6052V35.3705C362 34.4962 361.733 34.2491 360.858 34.2491H352.94C352.141 34.2491 351.798 34.5723 351.798 35.3705V53.0463C351.833 53.4618 351.777 53.88 351.633 54.2715C351.489 54.6631 351.262 55.0187 350.967 55.3136C350.671 55.6084 350.315 55.8355 349.923 55.979C349.531 56.1224 349.112 56.1788 348.696 56.1443H341.901C341.486 56.172 341.069 56.1111 340.679 55.9655C340.289 55.8199 339.935 55.593 339.64 55.2998C339.344 55.0067 339.115 54.6541 338.967 54.2655C338.818 53.877 338.755 53.4613 338.78 53.0463V35.3705C338.78 34.5723 338.457 34.2491 337.657 34.2491H329.721C328.864 34.2491 328.598 34.4962 328.598 35.3705V80.6052C328.598 81.3845 328.94 81.7266 329.721 81.7266H337.657C338.495 81.7266 338.78 81.4415 338.78 80.6052V69.4296C338.748 69.013 338.808 68.5946 338.954 68.2031C339.099 67.8116 339.329 67.4563 339.625 67.1618C339.922 66.8673 340.279 66.6406 340.672 66.4973C341.065 66.3539 341.485 66.2974 341.901 66.3316H348.696C349.113 66.2936 349.533 66.3477 349.927 66.49C350.32 66.6322 350.678 66.8592 350.974 67.1548C351.27 67.4504 351.497 67.8074 351.64 68.2006C351.782 68.5937 351.836 69.0133 351.798 69.4296V80.6052C351.798 81.3845 352.141 81.7266 352.94 81.7266Z" fill="white"/>
<path d="M283.908 43.2961V35.3705C283.908 34.5152 283.661 34.2491 282.785 34.2491H253.133C252.295 34.2491 252.01 34.5342 252.01 35.3705V61.9792C252.01 62.8154 252.295 63.1195 253.133 63.1195H276.714C277.532 63.1195 277.837 62.8154 277.837 61.9792V54.0346C277.837 53.1603 277.571 52.8942 276.714 52.8942H265.447C264.719 52.871 264.026 52.5744 263.507 52.0635C262.989 51.5526 262.682 50.8651 262.649 50.1383C262.649 50.0053 262.649 49.8912 262.649 49.7962V47.5155C262.649 47.4014 262.649 47.3064 262.649 47.2114C262.654 46.4719 262.95 45.7642 263.474 45.2413C263.998 44.7184 264.706 44.4224 265.447 44.4175H282.881C283.718 44.4175 284.004 44.1324 284.004 43.2961" fill="white"/>
<path d="M13.7598 44.5125C13.7598 45.9189 16.824 72.7557 17.0334 74.9224C17.395 78.2485 18.9366 81.7456 21.4489 81.8216C23.9612 81.8976 25.4838 78.2485 25.8645 74.9224C26.0739 73.0218 29.2142 45.2727 29.1191 44.5125C28.3958 31.2082 14.5782 30.695 13.7598 44.6075" fill="white"/>
<path d="M34.5948 10.0683L31.9839 12.6756C31.4934 13.1655 31.4934 13.9597 31.9839 14.4496L32.0916 14.5571C32.5822 15.047 33.3775 15.047 33.8681 14.5571L36.4789 11.9499C36.9695 11.46 36.9695 10.6657 36.4789 10.1759L36.3713 10.0683C35.8807 9.57847 35.0854 9.57847 34.5948 10.0683Z" fill="white"/>
<path d="M41.6815 19.4243H35.4769C35.1437 19.4243 34.8242 19.5565 34.5886 19.7917C34.353 20.027 34.2207 20.346 34.2207 20.6787V20.9068C34.2207 21.2413 34.3524 21.5623 34.5874 21.8006C34.8225 22.0389 35.142 22.1752 35.4769 22.1802H41.6815C41.8481 22.1802 42.013 22.1472 42.1666 22.0829C42.3203 22.0187 42.4596 21.9246 42.5765 21.8061C42.6934 21.6876 42.7855 21.5471 42.8475 21.3927C42.9095 21.2383 42.9402 21.0731 42.9376 20.9068V20.7738C42.9402 20.6083 42.9095 20.444 42.8472 20.2907C42.785 20.1373 42.6926 19.998 42.5754 19.881C42.4583 19.764 42.3188 19.6717 42.1652 19.6096C42.0117 19.5475 41.8472 19.5168 41.6815 19.5193" fill="white"/>
<path d="M31.6229 29.6502L31.5152 29.7577C31.0246 30.2476 31.0246 31.0419 31.5152 31.5317L34.1261 34.139C34.6166 34.6289 35.412 34.6289 35.9025 34.139L36.0102 34.0315C36.5007 33.5416 36.5007 32.7474 36.0102 32.2575L33.3993 29.6502C32.9088 29.1604 32.1134 29.1604 31.6229 29.6502Z" fill="white"/>
<path d="M9.53816 29.6557L6.9273 32.263C6.43674 32.7528 6.43674 33.5471 6.9273 34.037L7.03496 34.1445C7.52552 34.6344 8.32087 34.6344 8.81143 34.1445L11.4223 31.5372C11.9129 31.0474 11.9129 30.2531 11.4223 29.7632L11.3146 29.6557C10.8241 29.1658 10.0287 29.1658 9.53816 29.6557Z" fill="white"/>
<path d="M8.71693 20.9068V20.7738C8.71693 20.4411 8.58459 20.122 8.34901 19.8868C8.11344 19.6515 7.79393 19.5193 7.46078 19.5193H1.25615C0.922999 19.5193 0.603492 19.6515 0.367918 19.8868C0.132344 20.122 7.92204e-09 20.4411 7.92204e-09 20.7738V20.9068C-3.72995e-05 21.2413 0.131696 21.5623 0.366739 21.8006C0.601781 22.0389 0.921261 22.1752 1.25615 22.1802H7.46078C7.79567 22.1752 8.11515 22.0389 8.35019 21.8006C8.58523 21.5623 8.71697 21.2413 8.71693 20.9068Z" fill="white"/>
<path d="M6.57828 10.0637L6.47057 10.1712C5.97985 10.6609 5.97957 11.4552 6.46995 11.9452L9.07991 14.5534C9.5703 15.0434 10.3656 15.0437 10.8564 14.554L10.9641 14.4465C11.4548 13.9568 11.4551 13.1625 10.9647 12.6725L8.35474 10.0643C7.86436 9.5743 7.06901 9.57402 6.57828 10.0637Z" fill="white"/>
<path d="M21.3929 9.16099H21.5451C21.7126 9.1635 21.8789 9.13305 22.0346 9.07137C22.1903 9.00968 22.3323 8.91798 22.4524 8.80149C22.5726 8.68501 22.6686 8.54602 22.735 8.39247C22.8014 8.23892 22.8369 8.07381 22.8393 7.90658V1.25441C22.8369 1.08718 22.8014 0.922075 22.735 0.768524C22.6686 0.614973 22.5726 0.475986 22.4524 0.359499C22.3323 0.243013 22.1903 0.15131 22.0346 0.0896279C21.8789 0.0279455 21.7126 -0.00250801 21.5451 6.61955e-06H21.3929C21.0612 0.00491351 20.7446 0.138649 20.5101 0.372841C20.2756 0.607033 20.1416 0.923254 20.1367 1.25441V7.90658C20.1416 8.23774 20.2756 8.55396 20.5101 8.78815C20.7446 9.02234 21.0612 9.15608 21.3929 9.16099Z" fill="white"/>
<path d="M70.2105 34.3442C56.8877 34.5913 47.9043 45.1397 47.9043 58.2349C47.9043 71.6913 57.097 81.5935 70.2105 81.7266H86.5595V75.6636H70.4199C60.9036 75.6636 54.6989 67.9091 54.6989 58.0829C54.6989 48.2567 60.6181 40.2551 70.515 40.1791H86.4834V34.3442H70.2105Z" fill="white"/>
<path d="M184.617 34.2111V71.6533L160.655 36.1118C160.116 35.344 159.346 34.7677 158.458 34.4665C157.569 34.1653 156.607 34.1548 155.711 34.4366C154.816 34.7183 154.034 35.2777 153.479 36.0335C152.923 36.7893 152.624 37.7022 152.623 38.6396V81.7266H159.132V44.2464L183.094 79.826C183.624 80.5872 184.384 81.1594 185.263 81.4593C186.141 81.7592 187.093 81.771 187.979 81.4931C188.864 81.2153 189.638 80.6621 190.187 79.9144C190.736 79.1666 191.032 78.2634 191.031 77.3362V34.2111H184.617Z" fill="white"/>
<path d="M31.1184 21.8951C31.1184 23.8047 30.5513 25.6715 29.4889 27.2592C28.4265 28.847 26.9165 30.0845 25.1498 30.8153C23.3831 31.5461 21.4391 31.7373 19.5636 31.3648C17.6881 30.9922 15.9653 30.0726 14.6131 28.7223C13.2609 27.3721 12.3401 25.6517 11.967 23.7788C11.594 21.9058 11.7854 19.9645 12.5172 18.2003C13.249 16.436 14.4883 14.9281 16.0782 13.8672C17.6682 12.8063 19.5376 12.24 21.4498 12.24C24.0125 12.245 26.4688 13.2639 28.281 15.0735C30.0931 16.8831 31.1133 19.336 31.1184 21.8951Z" fill="white"/>
<path d="M137.34 76.1768H101.844L92.1562 81.7646H147.027L137.34 76.1768Z" fill="white"/>
<path d="M119.601 44.5695V34.3252L92.1562 81.7646L101.844 76.1768L119.601 44.5695Z" fill="white"/>
<path d="M119.602 44.5695L137.34 76.1578V76.1768L147.028 81.7646L119.602 34.3252V44.5695Z" fill="white"/>
</g>
<defs>
<clipPath id="clip0_955_6443">
<rect width="362" height="83" fill="white"/>
</clipPath>
</defs>
</svg>
