<svg width="153" height="36" viewBox="0 0 153 36" fill="none" xmlns="http://www.w3.org/2000/svg">
<g clip-path="url(#clip0_927_6868)">
<path d="M103.253 14.9263H88.0256C87.673 14.9263 87.5527 15.0465 87.5527 15.3991V18.7332C87.5527 19.0698 87.697 19.2141 88.0256 19.2141H92.1692C92.3462 19.1977 92.5247 19.2208 92.6917 19.2817C92.8588 19.3426 93.0102 19.4398 93.1352 19.5663C93.2601 19.6928 93.3555 19.8454 93.4143 20.0132C93.4732 20.181 93.4941 20.3597 93.4756 20.5365V34.482C93.4756 34.8106 93.6198 34.9549 93.9564 34.9549H97.2905C97.6432 34.9549 97.7714 34.8347 97.7714 34.482V20.5365C97.757 20.361 97.7808 20.1843 97.8413 20.0189C97.9017 19.8534 97.9973 19.703 98.1215 19.5781C98.2457 19.4531 98.3955 19.3566 98.5606 19.2952C98.7257 19.2337 98.9022 19.2088 99.0778 19.2221H103.253C103.606 19.2221 103.734 19.0939 103.734 18.7412V15.4152C103.734 15.0465 103.622 14.9423 103.253 14.9423" fill="#0058A1"/>
<path d="M106.49 34.9631H119.169C119.441 34.9631 119.538 34.8509 119.554 34.5704V31.1482C119.554 30.7875 119.449 30.6753 119.081 30.6753H106.594C106.233 30.6753 106.121 30.7875 106.121 31.1482V34.5784C106.121 34.6303 106.131 34.6817 106.152 34.7294C106.172 34.7772 106.202 34.8203 106.239 34.8563C106.277 34.8922 106.321 34.9202 106.37 34.9386C106.418 34.9569 106.47 34.9653 106.522 34.9631" fill="#D42789"/>
<path d="M128.979 14.4053C123.136 14.4053 121.918 18.1161 121.918 21.2257V28.6794C121.918 31.7891 123.136 35.4998 128.979 35.4998C134.525 35.4998 135.863 32.1658 136.008 29.3686C136.016 29.3191 136.014 29.2685 136.002 29.2197C135.99 29.171 135.968 29.1251 135.938 29.0848C135.909 29.0445 135.871 29.0105 135.828 28.985C135.785 28.9594 135.737 28.9427 135.687 28.9358L132.313 28.1905C132.247 28.169 132.177 28.1621 132.107 28.1704C132.038 28.1788 131.972 28.202 131.912 28.2386C131.84 28.294 131.779 28.3639 131.735 28.4439C131.691 28.524 131.664 28.6124 131.656 28.7034C131.487 30.0018 131.047 31.212 128.979 31.212C126.206 31.212 126.206 29.024 126.206 27.1005V22.8046C126.206 20.8811 126.206 18.6931 128.979 18.6931C129.323 18.649 129.673 18.68 130.005 18.784C130.336 18.888 130.641 19.0625 130.898 19.2956C131.156 19.5286 131.359 19.8147 131.496 20.134C131.632 20.4534 131.698 20.7985 131.688 21.1456C131.696 21.2397 131.724 21.3311 131.77 21.4139C131.815 21.4966 131.877 21.569 131.952 21.6265C132.014 21.6716 132.085 21.7023 132.16 21.7162C132.234 21.7301 132.312 21.7268 132.385 21.7066L135.679 20.9693C135.776 20.9591 135.864 20.9114 135.926 20.8364C135.987 20.7614 136.017 20.6651 136.008 20.5685C135.863 17.7554 134.525 14.4053 128.979 14.4053Z" fill="#0058A1"/>
<path d="M148.624 34.963H151.958C152.311 34.963 152.439 34.8428 152.439 34.4901V15.4152C152.439 15.0466 152.327 14.9424 151.958 14.9424H148.624C148.287 14.9424 148.143 15.0786 148.143 15.4152V22.8689C148.157 23.0441 148.134 23.2204 148.073 23.3856C148.013 23.5507 147.917 23.7006 147.793 23.825C147.668 23.9493 147.518 24.0451 147.353 24.1056C147.188 24.1661 147.012 24.1898 146.837 24.1753H143.975C143.8 24.187 143.625 24.1613 143.461 24.0999C143.296 24.0385 143.147 23.9428 143.023 23.8192C142.898 23.6956 142.802 23.5469 142.739 23.383C142.677 23.2192 142.65 23.0439 142.661 22.8689V15.4152C142.661 15.0786 142.525 14.9424 142.188 14.9424H138.846C138.485 14.9424 138.373 15.0466 138.373 15.4152V34.4901C138.373 34.8187 138.517 34.963 138.846 34.963H142.188C142.541 34.963 142.661 34.8428 142.661 34.4901V29.7775C142.648 29.6019 142.672 29.4254 142.734 29.2603C142.795 29.0952 142.892 28.9454 143.017 28.8212C143.142 28.697 143.292 28.6014 143.458 28.541C143.623 28.4805 143.8 28.4567 143.975 28.4711H146.837C147.012 28.4551 147.189 28.4779 147.355 28.5379C147.521 28.5979 147.671 28.6936 147.796 28.8183C147.92 28.9429 148.016 29.0935 148.076 29.2592C148.136 29.425 148.159 29.6019 148.143 29.7775V34.4901C148.143 34.8187 148.287 34.963 148.624 34.963Z" fill="#0058A1"/>
<path d="M119.554 18.7574V15.4152C119.554 15.0546 119.449 14.9424 119.081 14.9424H106.594C106.241 14.9424 106.121 15.0626 106.121 15.4152V26.6358C106.121 26.9884 106.241 27.1166 106.594 27.1166H116.524C116.869 27.1166 116.997 26.9884 116.997 26.6358V23.2856C116.997 22.917 116.885 22.8048 116.524 22.8048H111.779C111.473 22.795 111.181 22.6699 110.963 22.4544C110.744 22.239 110.615 21.9491 110.601 21.6426C110.601 21.5865 110.601 21.5384 110.601 21.4984V20.5366C110.601 20.4885 110.601 20.4485 110.601 20.4084C110.603 20.0966 110.728 19.7981 110.949 19.5776C111.169 19.3571 111.468 19.2323 111.779 19.2302H119.121C119.474 19.2302 119.594 19.11 119.594 18.7574" fill="#0058A1"/>
<path d="M5.79492 19.2704C5.79492 19.8635 7.08528 31.1802 7.17344 32.0939C7.32572 33.4964 7.97491 34.9711 9.03284 35.0032C10.0908 35.0352 10.7319 33.4964 10.8922 32.0939C10.9804 31.2924 12.3028 19.591 12.2627 19.2704C11.9582 13.6602 6.13955 13.4438 5.79492 19.3105" fill="#0159A0"/>
<path d="M14.5672 4.74576L13.4678 5.8452C13.2612 6.05178 13.2612 6.3867 13.4678 6.59327L13.5131 6.63861C13.7197 6.84519 14.0546 6.84519 14.2612 6.63861L15.3606 5.53917C15.5672 5.3326 15.5672 4.99767 15.3606 4.7911L15.3153 4.74576C15.1087 4.53919 14.7738 4.53919 14.5672 4.74576Z" fill="#DC3B8A"/>
<path d="M17.5519 8.69092H14.9391C14.7988 8.69092 14.6643 8.74665 14.5651 8.84585C14.4659 8.94505 14.4102 9.07959 14.4102 9.21989V9.31606C14.4101 9.4571 14.4656 9.59248 14.5646 9.69296C14.6636 9.79344 14.7981 9.85094 14.9391 9.85304H17.5519C17.622 9.85305 17.6915 9.83911 17.7562 9.81203C17.8209 9.78494 17.8796 9.74526 17.9288 9.69529C17.978 9.64532 18.0168 9.58606 18.0429 9.52095C18.069 9.45585 18.0819 9.3862 18.0809 9.31606V9.25996C18.0819 9.1902 18.069 9.12092 18.0428 9.05626C18.0166 8.99159 17.9777 8.93285 17.9283 8.88351C17.879 8.83418 17.8203 8.79525 17.7556 8.76905C17.6909 8.74285 17.6217 8.72991 17.5519 8.73099" fill="#5C9A43"/>
<path d="M13.3159 13.003L13.2705 13.0483C13.0639 13.2549 13.0639 13.5898 13.2705 13.7964L14.37 14.8958C14.5765 15.1024 14.9115 15.1024 15.118 14.8958L15.1634 14.8505C15.3699 14.6439 15.3699 14.309 15.1634 14.1024L14.0639 13.003C13.8574 12.7964 13.5224 12.7964 13.3159 13.003Z" fill="#DC3B8A"/>
<path d="M4.01644 13.0055L2.917 14.105C2.71043 14.3115 2.71043 14.6465 2.917 14.853L2.96234 14.8984C3.16892 15.105 3.50384 15.105 3.71041 14.8984L4.80985 13.7989C5.01643 13.5924 5.01643 13.2574 4.80985 13.0509L4.76452 13.0055C4.55794 12.799 4.22302 12.799 4.01644 13.0055Z" fill="#DC3B8A"/>
<path d="M3.67071 9.31603V9.25992C3.67071 9.11963 3.61498 8.98509 3.51578 8.88589C3.41658 8.78669 3.28204 8.73096 3.14174 8.73096H0.528967C0.388676 8.73096 0.254131 8.78669 0.154931 8.88589C0.0557303 8.98509 3.33598e-09 9.11963 3.33598e-09 9.25992V9.31603C-1.57069e-05 9.45707 0.0554575 9.59245 0.154434 9.69292C0.253411 9.7934 0.387944 9.8509 0.528967 9.85301H3.14174C3.28277 9.8509 3.4173 9.7934 3.51628 9.69292C3.61525 9.59245 3.67073 9.45707 3.67071 9.31603Z" fill="#5C9A43"/>
<path d="M2.76913 4.74386L2.72378 4.78918C2.51713 4.99568 2.51701 5.33061 2.72352 5.53725L3.82257 6.63708C4.02907 6.84372 4.364 6.84384 4.57064 6.63734L4.616 6.59202C4.82264 6.38551 4.82276 6.05059 4.61626 5.84394L3.5172 4.74412C3.3107 4.53747 2.97578 4.53736 2.76913 4.74386Z" fill="#DC3B8A"/>
<path d="M9.00944 4.36313H9.07355C9.14407 4.36419 9.21411 4.35134 9.27967 4.32533C9.34522 4.29932 9.40501 4.26065 9.45562 4.21153C9.50623 4.16241 9.54667 4.1038 9.57462 4.03905C9.60258 3.9743 9.61751 3.90468 9.61855 3.83416V1.02903C9.61751 0.958508 9.60258 0.888885 9.57462 0.824134C9.54667 0.759384 9.50623 0.700775 9.45562 0.651654C9.40501 0.602533 9.34522 0.563863 9.27967 0.537853C9.21411 0.511842 9.14407 0.499 9.07355 0.500061H9.00944C8.86979 0.50213 8.73644 0.558525 8.63769 0.65728C8.53893 0.756036 8.48254 0.889382 8.48047 1.02903V3.83416C8.48254 3.9738 8.53893 4.10715 8.63769 4.20591C8.73644 4.30466 8.86979 4.36106 9.00944 4.36313Z" fill="#5C9A43"/>
<path d="M29.567 14.9824C23.9567 15.0866 20.1738 19.5347 20.1738 25.0568C20.1738 30.7312 24.0449 34.9069 29.567 34.963H36.4516V32.4063H29.6552C25.6478 32.4063 23.0351 29.1363 23.0351 24.9927C23.0351 20.8491 25.5276 17.475 29.6952 17.4429H36.4195V14.9824H29.567Z" fill="#0159A0"/>
<path d="M77.7422 14.9263V30.7151L67.6517 15.7277C67.4249 15.404 67.1008 15.161 66.7264 15.034C66.3521 14.9069 65.947 14.9025 65.57 15.0213C65.193 15.1402 64.8637 15.376 64.6298 15.6947C64.396 16.0134 64.2698 16.3984 64.2695 16.7937V34.9629H67.0105V19.158L77.101 34.1614C77.3242 34.4824 77.6442 34.7237 78.0141 34.8502C78.3841 34.9767 78.7848 34.9817 79.1578 34.8645C79.5308 34.7473 79.8567 34.514 80.0879 34.1987C80.3191 33.8834 80.4435 33.5025 80.4431 33.1115V14.9263H77.7422Z" fill="#0159A0"/>
<path d="M13.1038 9.73307C13.1038 10.5383 12.865 11.3255 12.4177 11.995C11.9703 12.6646 11.3344 13.1864 10.5905 13.4946C9.8465 13.8027 9.02787 13.8834 8.23808 13.7263C7.4483 13.5692 6.72284 13.1814 6.15344 12.612C5.58404 12.0426 5.19627 11.3171 5.03917 10.5274C4.88207 9.73758 4.9627 8.91895 5.27086 8.17499C5.57902 7.43103 6.10086 6.79516 6.77041 6.34778C7.43996 5.90041 8.22713 5.66162 9.03238 5.66162C10.1115 5.66374 11.1459 6.09337 11.909 6.85646C12.6721 7.61954 13.1017 8.6539 13.1038 9.73307Z" fill="#0159A0"/>
<path d="M57.8334 32.6226H42.8861L38.8066 34.9789H61.9129L57.8334 32.6226Z" fill="#D42789"/>
<path d="M50.3638 19.2945V14.9746L38.8066 34.9792L42.8861 32.6229L50.3638 19.2945Z" fill="#0159A0"/>
<path d="M50.3633 19.2945L57.8329 32.6149V32.6229L61.9124 34.9792L50.3633 14.9746V19.2945Z" fill="#87C040"/>
</g>
<defs>
<clipPath id="clip0_927_6868">
<rect width="152.439" height="35" fill="white" transform="translate(0 0.5)"/>
</clipPath>
</defs>
</svg>
